<?xml version="1.0" standalone="no"?>
<!DOCTYPE svg PUBLIC "-//W3C//DTD SVG 20010904//EN"
 "http://www.w3.org/TR/2001/REC-SVG-20010904/DTD/svg10.dtd">
<svg version="1.0" xmlns="http://www.w3.org/2000/svg"
 width="50.000000pt" height="50.000000pt" viewBox="0 0 50.000000 50.000000"
 preserveAspectRatio="xMidYMid meet">

<g transform="translate(0.000000,50.000000) scale(0.100000,-0.100000)"
fill="#000000" stroke="none">
<path d="M282 399 c2 -8 15 -16 29 -18 23 -3 39 -17 39 -33 0 -5 -40 -8 -89
-8 -70 0 -90 3 -95 15 -3 9 0 15 9 15 7 0 17 5 20 10 4 6 -12 10 -39 10 -34 0
-46 -4 -46 -15 0 -8 9 -15 19 -15 24 0 34 -25 21 -51 -7 -12 -21 -19 -40 -19
-85 0 -133 -76 -96 -149 36 -69 146 -64 176 9 8 20 19 30 34 30 15 0 39 20 72
60 27 33 52 60 57 60 13 0 7 -21 -8 -27 -19 -7 -45 -55 -45 -82 0 -52 48 -101
100 -101 52 0 100 49 100 101 0 50 -49 99 -100 99 -19 0 -25 10 -36 73 -5 30
-10 37 -29 37 -13 0 -31 3 -41 7 -12 4 -15 2 -12 -8z m48 -86 c-1 -5 -21 -30
-45 -57 l-43 -49 -26 51 c-14 28 -26 54 -26 57 0 3 32 5 70 5 39 0 70 -3 70
-7z m-132 -59 c13 -26 20 -49 17 -52 -6 -6 -6 -7 -33 41 -23 40 -27 57 -14 57
4 0 18 -21 30 -46z m-78 4 c-1 -7 -7 -24 -15 -38 -21 -37 -19 -40 30 -40 25 0
45 -5 45 -10 0 -23 -50 -60 -80 -60 -70 0 -105 86 -55 135 25 26 75 34 75 13z
m335 -13 c50 -49 15 -135 -55 -135 -63 0 -101 75 -64 128 22 31 32 28 45 -18
7 -22 16 -40 22 -40 9 0 8 8 -9 68 -5 18 -2 22 15 22 12 0 33 -11 46 -25z
m-285 -14 c15 -28 13 -31 -20 -31 -16 0 -30 3 -30 6 0 12 21 44 30 44 5 0 14
-9 20 -19z"/>
</g>
</svg>
