<?xml version="1.0" encoding="utf-8"?>
<!-- Generator: Adobe Illustrator 26.4.1, SVG Export Plug-In . SVG Version: 6.00 Build 0)  -->
<svg version="1.0" id="katman_1" xmlns="http://www.w3.org/2000/svg" xmlns:xlink="http://www.w3.org/1999/xlink" x="0px" y="0px"
	 viewBox="0 0 126.75 86.6" style="enable-background:new 0 0 126.75 86.6;" xml:space="preserve">
<style type="text/css">
	.st0{fill:url(#SVGID_1_);}
	.st1{fill-rule:evenodd;clip-rule:evenodd;fill:url(#SVGID_00000145052517556220416570000016150466469751858876_);}
	.st2{fill-rule:evenodd;clip-rule:evenodd;fill:url(#SVGID_00000179628888436745265650000005036156019048266119_);}
	.st3{fill-rule:evenodd;clip-rule:evenodd;fill:url(#SVGID_00000090292676916417221620000010138367969383795092_);}
	.st4{fill:url(#SVGID_00000168091766624613634530000012998211574306939303_);}
	.st5{fill:url(#SVGID_00000174582303391603659080000002883607050132141476_);}
	.st6{fill:#FFFFFF;}
	.st7{fill:url(#SVGID_00000100342631675284517820000010350533635409827503_);}
	.st8{fill:url(#SVGID_00000162345193270916010460000000201203593374030258_);}
</style>
<linearGradient id="SVGID_1_" gradientUnits="userSpaceOnUse" x1="46.8088" y1="43.0746" x2="56.6142" y2="43.0746">
	<stop  offset="0" style="stop-color:#8FCE3C"/>
	<stop  offset="1" style="stop-color:#64A322"/>
</linearGradient>
<path class="st0" d="M52.72,39.62h3.48l-4.17,4.62l4.58,5.13H53.2c-0.08,0-3.64-4.17-3.64-4.17v4.17h-2.75V36.78h2.75v6.76
	L52.72,39.62z"/>
<linearGradient id="SVGID_00000180368683509410654540000003123684145952397744_" gradientUnits="userSpaceOnUse" x1="56.3804" y1="44.4712" x2="66.6446" y2="44.4712">
	<stop  offset="0" style="stop-color:#8FCE3C"/>
	<stop  offset="1" style="stop-color:#64A322"/>
</linearGradient>
<path style="fill-rule:evenodd;clip-rule:evenodd;fill:url(#SVGID_00000180368683509410654540000003123684145952397744_);" d="
	M56.38,44.47c0-2.84,2.3-5.14,5.13-5.14c2.83,0,5.13,2.3,5.13,5.14s-2.3,5.14-5.13,5.14C58.68,49.61,56.38,47.31,56.38,44.47z
	 M59.08,44.48c0,1.42,1.09,2.56,2.43,2.56c1.34,0,2.43-1.15,2.43-2.56c0-1.42-1.09-2.56-2.43-2.56
	C60.17,41.91,59.08,43.06,59.08,44.48z"/>
<linearGradient id="SVGID_00000016761148622577369570000012412566627431231885_" gradientUnits="userSpaceOnUse" x1="85.3424" y1="44.4712" x2="95.6066" y2="44.4712">
	<stop  offset="0" style="stop-color:#8FCE3C"/>
	<stop  offset="1" style="stop-color:#64A322"/>
</linearGradient>
<path style="fill-rule:evenodd;clip-rule:evenodd;fill:url(#SVGID_00000016761148622577369570000012412566627431231885_);" d="
	M85.34,44.47c0-2.84,2.3-5.14,5.13-5.14s5.13,2.3,5.13,5.14s-2.3,5.14-5.13,5.14S85.34,47.31,85.34,44.47z M88.04,44.48
	c0,1.43,1.09,2.58,2.43,2.58s2.43-1.16,2.43-2.58s-1.09-2.58-2.43-2.58S88.04,43.05,88.04,44.48z"/>
<linearGradient id="SVGID_00000083066548108704013050000014515556313619393210_" gradientUnits="userSpaceOnUse" x1="97.0639" y1="44.4712" x2="107.3281" y2="44.4712">
	<stop  offset="0" style="stop-color:#8FCE3C"/>
	<stop  offset="1" style="stop-color:#64A322"/>
</linearGradient>
<path style="fill-rule:evenodd;clip-rule:evenodd;fill:url(#SVGID_00000083066548108704013050000014515556313619393210_);" d="
	M102.2,39.33c-2.83,0-5.13,2.3-5.13,5.14c0,2.84,2.3,5.14,5.13,5.14c2.83,0,5.13-2.3,5.13-5.14S105.03,39.33,102.2,39.33z
	 M102.2,47.06c-1.34,0-2.43-1.16-2.43-2.58s1.09-2.58,2.43-2.58c1.34,0,2.43,1.16,2.43,2.58S103.54,47.06,102.2,47.06z"/>
<linearGradient id="SVGID_00000003794853751191377960000017242888788698137015_" gradientUnits="userSpaceOnUse" x1="108.0298" y1="43.298" x2="115.4513" y2="43.298">
	<stop  offset="0" style="stop-color:#8FCE3C"/>
	<stop  offset="1" style="stop-color:#64A322"/>
</linearGradient>
<path style="fill:url(#SVGID_00000003794853751191377960000017242888788698137015_);" d="M114.9,47.19
	c-1.03,0.18-1.62-0.24-1.86-0.49c-0.25-0.26-0.44-0.68-0.44-0.96v-3.81h2.56v-2.3h-2.56v-2.65h-2.72v2.65h-1.86v2.3h1.86v3.81
	c0,2.14,1.74,3.87,3.87,3.87c0,0,0.99,0.04,1.69-0.25L114.9,47.19z"/>
<linearGradient id="SVGID_00000062188246619414999130000012811480609301895554_" gradientUnits="userSpaceOnUse" x1="68.4302" y1="44.378" x2="83.5567" y2="44.378">
	<stop  offset="0" style="stop-color:#8FCE3C"/>
	<stop  offset="1" style="stop-color:#64A322"/>
</linearGradient>
<path style="fill:url(#SVGID_00000062188246619414999130000012811480609301895554_);" d="M71.16,44.31c-0.01,1.23,0,5.04,0,5.04v0
	h-2.73v-9.72h2.28l0.33,1.2c0.48-0.74,1.08-1.2,1.97-1.36c1-0.18,1.86-0.07,2.64,0.34c0.49,0.26,0.89,0.67,1.16,1.22
	c0-0.01,0.01-0.02,0.02-0.03c0.11-0.15,0.23-0.31,0.35-0.45c0.48-0.57,1.11-0.92,1.87-1.07c0.76-0.14,1.48-0.11,2.16,0.09
	c0.78,0.23,1.38,0.72,1.77,1.44c0.3,0.54,0.47,1.16,0.53,1.88c0.03,0.35,0.04,0.67,0.04,0.97v5.51h-2.72c0,0,0.01-4.25,0-5.63
	c0-0.42-0.1-0.8-0.28-1.12c-0.19-0.33-0.45-0.54-0.82-0.63c-0.45-0.11-0.83-0.09-1.22,0.06c-0.51,0.19-0.85,0.58-1.05,1.19
	c-0.1,0.31-0.15,0.67-0.15,1.08v5.04h-2.66v-5.54c0-0.33-0.02-0.72-0.17-1.08c-0.21-0.51-0.59-0.77-1.17-0.81
	c-0.44-0.03-0.81,0.04-1.13,0.19c-0.52,0.25-0.76,0.67-0.9,1.28C71.21,43.68,71.16,43.99,71.16,44.31z"/>
<path class="st6" d="M40.93,47.04c2.07-8.59-3.22-17.23-11.81-19.29S11.89,30.97,9.82,39.56c-2.07,8.59,3.22,17.23,11.81,19.29
	C30.23,60.92,38.86,55.63,40.93,47.04z"/>
<linearGradient id="SVGID_00000127734138963518310080000015829183735742343862_" gradientUnits="userSpaceOnUse" x1="25.3769" y1="58.2689" x2="25.3769" y2="30.8842" gradientTransform="matrix(1 0 0 -1 0 87.872)">
	<stop  offset="0" style="stop-color:#8FCE3C"/>
	<stop  offset="1" style="stop-color:#64A322"/>
</linearGradient>
<path style="fill:url(#SVGID_00000127734138963518310080000015829183735742343862_);" d="M11.68,43.3c0-7.55,6.14-13.69,13.69-13.69
	c7.55,0,13.69,6.14,13.69,13.69c0,3.04-0.98,5.91-2.82,8.31l-6.87-6.87c0.17-0.47,0.26-0.96,0.26-1.45c0-2.35-1.91-4.27-4.27-4.27
	s-4.27,1.91-4.27,4.27c0,0.49,0.09,0.98,0.26,1.45l-6.87,6.87C12.66,49.21,11.68,46.33,11.68,43.3z"/>
<linearGradient id="SVGID_00000078752393172621795650000009371761624452078015_" gradientUnits="userSpaceOnUse" x1="25.3768" y1="58.2669" x2="25.3768" y2="30.8821" gradientTransform="matrix(1 0 0 -1 0 87.872)">
	<stop  offset="0" style="stop-color:#8FCE3C"/>
	<stop  offset="1" style="stop-color:#64A322"/>
</linearGradient>
<path style="fill:url(#SVGID_00000078752393172621795650000009371761624452078015_);" d="M22.87,46.53l2.51-3.91l2.51,3.91l6.8,6.8
	c-2.54,2.36-5.84,3.66-9.31,3.66s-6.77-1.3-9.31-3.66L22.87,46.53z"/>
</svg>
